<svg xmlns="http://www.w3.org/2000/svg" width="100%" height="100%" viewBox="0 0 1000 1000"><rect fill="#ffffff" width="1000" height="1000"></rect><defs><radialGradient id="a" cx="500" cy="500" r="47.4%" gradientUnits="userSpaceOnUse"><stop offset="0" stop-color="#ffffff"></stop><stop offset="1" stop-color="#ffffff"></stop></radialGradient><radialGradient id="b" cx="500" cy="500" r="57.3%" gradientUnits="userSpaceOnUse"><stop offset="0" stop-color="#ffffff" stop-opacity="1"></stop><stop offset="1" stop-color="#ffffff" stop-opacity="0"></stop></radialGradient></defs><rect fill="url(#a)" width="1000" height="1000"></rect><g fill="none" stroke="#039f9a" stroke-width="0.9" stroke-miterlimit="10" stroke-opacity="0.13"><circle cx="500" cy="500" r="725"></circle><circle cx="500" cy="500" r="700"></circle><circle cx="500" cy="500" r="675"></circle><circle cx="500" cy="500" r="650"></circle><circle cx="500" cy="500" r="625"></circle><circle cx="500" cy="500" r="600"></circle><circle cx="500" cy="500" r="575"></circle><circle cx="500" cy="500" r="550"></circle><circle cx="500" cy="500" r="525"></circle><circle cx="500" cy="500" r="500"></circle><circle cx="500" cy="500" r="475"></circle><circle cx="500" cy="500" r="450"></circle><circle cx="500" cy="500" r="425"></circle><circle cx="500" cy="500" r="400"></circle><circle cx="500" cy="500" r="375"></circle><circle cx="500" cy="500" r="350"></circle><circle cx="500" cy="500" r="325"></circle><circle cx="500" cy="500" r="300"></circle><circle cx="500" cy="500" r="275"></circle><circle cx="500" cy="500" r="250"></circle><circle cx="500" cy="500" r="225"></circle><circle cx="500" cy="500" r="200"></circle><circle cx="500" cy="500" r="175"></circle><circle cx="500" cy="500" r="150"></circle><circle cx="500" cy="500" r="125"></circle><circle cx="500" cy="500" r="100"></circle><circle cx="500" cy="500" r="75"></circle><circle cx="500" cy="500" r="50"></circle><circle cx="500" cy="500" r="25"></circle></g><rect fill-opacity="0.13" fill="url(#b)" width="1000" height="1000"></rect></svg>
